<svg width="42" height="32" viewBox="0 0 42 32" fill="none" xmlns="http://www.w3.org/2000/svg">
<path d="M7.63553 31.841V29.723C7.63553 28.9109 7.1312 28.3816 6.26676 28.3816C5.83462 28.3816 5.36638 28.5228 5.0422 28.9817C4.79019 28.5934 4.43008 28.3816 3.88982 28.3816C3.52954 28.3816 3.16959 28.4874 2.88133 28.8757V28.4522H2.125V31.841H2.88133V29.97C2.88133 29.37 3.20552 29.0875 3.70984 29.0875C4.21384 29.0875 4.46617 29.4053 4.46617 29.97V31.841H5.2225V29.97C5.2225 29.37 5.58245 29.0875 6.05069 29.0875C6.55502 29.0875 6.80702 29.4053 6.80702 29.97V31.841H7.63553ZM18.8362 28.4522H17.6118V27.4285H16.8555V28.4522H16.1712V29.1227H16.8554V30.6761C16.8554 31.4528 17.1795 31.9116 18.044 31.9116C18.3682 31.9116 18.7281 31.8057 18.9805 31.6646L18.7642 31.0291C18.5481 31.1702 18.2961 31.2056 18.116 31.2056C17.7559 31.2056 17.6118 30.9938 17.6118 30.6407V29.1227H18.8362V28.4522ZM25.2471 28.3814C24.815 28.3814 24.5269 28.5934 24.3468 28.8757V28.4522H23.5904V31.841H24.3468V29.9348C24.3468 29.37 24.5988 29.0523 25.067 29.0523C25.2111 29.0523 25.3912 29.0877 25.5352 29.1229L25.7513 28.417C25.6073 28.3816 25.3912 28.3816 25.2471 28.3816V28.3814ZM15.5589 28.7345C15.1986 28.4874 14.6945 28.3816 14.1542 28.3816C13.2899 28.3816 12.7138 28.8051 12.7138 29.4759C12.7138 30.0408 13.1459 30.3583 13.9022 30.4643L14.2623 30.4997C14.6586 30.5701 14.8746 30.6761 14.8746 30.8527C14.8746 31.0997 14.5865 31.2762 14.0822 31.2762C13.578 31.2762 13.1818 31.0997 12.9297 30.9233L12.5695 31.488C12.9658 31.7704 13.506 31.9116 14.0461 31.9116C15.0546 31.9116 15.631 31.4528 15.631 30.8173C15.631 30.2172 15.1627 29.8994 14.4423 29.7936L14.0822 29.7582C13.758 29.7229 13.506 29.6524 13.506 29.4406C13.506 29.1935 13.758 29.0523 14.1542 29.0523C14.5865 29.0523 15.0187 29.2287 15.2347 29.3347L15.5589 28.7345ZM35.6558 28.3816C35.2235 28.3816 34.9354 28.5934 34.7552 28.8757V28.4522H33.9989V31.841H34.7552V29.9348C34.7552 29.37 35.0074 29.0523 35.4755 29.0523C35.6197 29.0523 35.7998 29.0877 35.9439 29.1229L36.1599 28.417C36.0159 28.3816 35.7998 28.3816 35.6558 28.3816ZM26.0035 30.1466C26.0035 31.1702 26.7237 31.9116 27.8403 31.9116C28.3445 31.9116 28.7046 31.8057 29.0647 31.5234L28.7046 30.9233C28.4165 31.135 28.1284 31.2408 27.8042 31.2408C27.1919 31.2408 26.7598 30.8173 26.7598 30.1466C26.7598 29.5112 27.1919 29.0875 27.8042 29.0523C28.1284 29.0523 28.4165 29.1581 28.7046 29.37L29.0647 28.7699C28.7046 28.4874 28.3445 28.3816 27.8403 28.3816C26.7237 28.3816 26.0035 29.1229 26.0035 30.1466ZM32.9906 30.1466V28.4522H32.2342V28.8757C31.9821 28.5581 31.622 28.3816 31.1537 28.3816C30.1813 28.3816 29.425 29.1229 29.425 30.1466C29.425 31.1702 30.1813 31.9116 31.1537 31.9116C31.6579 31.9116 32.0182 31.7352 32.2342 31.4174V31.841H32.9906V30.1466ZM30.2173 30.1466C30.2173 29.5464 30.6135 29.0523 31.2617 29.0523C31.874 29.0523 32.3063 29.5112 32.3063 30.1466C32.3063 30.7467 31.874 31.2408 31.2617 31.2408C30.6135 31.2055 30.2173 30.7467 30.2173 30.1466ZM21.1774 28.3816C20.1689 28.3816 19.4485 29.0875 19.4485 30.1466C19.4485 31.2056 20.1688 31.9116 21.2133 31.9116C21.7175 31.9116 22.2218 31.7704 22.618 31.4528L22.2578 30.9233C21.9697 31.135 21.6096 31.2762 21.2494 31.2762C20.7812 31.2762 20.313 31.0644 20.2049 30.4642H22.7621V30.1819C22.7982 29.0875 22.1498 28.3816 21.1772 28.3816H21.1774ZM21.1774 29.0169C21.6455 29.0169 21.9698 29.2995 22.0417 29.829H20.2409C20.313 29.37 20.6372 29.0169 21.1774 29.0169ZM39.9416 30.1466V27.1107H39.1852V28.8757C38.9331 28.5581 38.573 28.3816 38.1047 28.3816C37.1323 28.3816 36.376 29.1229 36.376 30.1466C36.376 31.1702 37.1323 31.9116 38.1047 31.9116C38.6091 31.9116 38.9692 31.7352 39.1852 31.4174V31.841H39.9416V30.1466ZM37.1684 30.1466C37.1684 29.5464 37.5645 29.0523 38.2128 29.0523C38.8251 29.0523 39.2573 29.5112 39.2573 30.1466C39.2573 30.7467 38.8251 31.2408 38.2128 31.2408C37.5645 31.2055 37.1684 30.7467 37.1684 30.1466ZM11.8852 30.1466V28.4522H11.1289V28.8757C10.8767 28.5581 10.5166 28.3816 10.0484 28.3816C9.076 28.3816 8.31967 29.1229 8.31967 30.1466C8.31967 31.1702 9.076 31.9116 10.0484 31.9116C10.5527 31.9116 10.9128 31.7352 11.1289 31.4174V31.841H11.8852V30.1466ZM9.076 30.1466C9.076 29.5464 9.47221 29.0523 10.1204 29.0523C10.7327 29.0523 11.165 29.5112 11.165 30.1466C11.165 30.7467 10.7327 31.2408 10.1204 31.2408C9.47221 31.2055 9.076 30.7467 9.076 30.1466Z" fill="black"/>
<path d="M15.3066 2.71806H26.6516V22.6981H15.3066V2.71806Z" fill="#FF5F00"/>
<path d="M16.0271 12.7082C16.0271 8.64868 17.9719 5.04796 20.9611 2.71807C18.7643 1.02368 15.9912 0 12.9659 0C5.79846 0 0 5.6833 0 12.7082C0 19.7329 5.79846 25.4164 12.9657 25.4164C15.991 25.4164 18.7642 24.3927 20.9611 22.6981C17.9719 20.4036 16.0271 16.7677 16.0271 12.7082Z" fill="#EB001B"/>
<path d="M41.9592 12.7082C41.9592 19.7329 36.1607 25.4164 28.9935 25.4164C25.9682 25.4164 23.195 24.3927 20.998 22.6981C24.0234 20.3684 25.9322 16.7677 25.9322 12.7082C25.9322 8.64868 23.9873 5.04796 20.998 2.71807C23.1948 1.02368 25.9682 0 28.9935 0C36.1607 0 41.9593 5.71867 41.9593 12.7082H41.9592Z" fill="#F79E1B"/>
</svg>
