<svg width="128" height="31" viewBox="0 0 128 31" fill="none" xmlns="http://www.w3.org/2000/svg">
<path d="M21.2828 11.7756L15.3321 10.9108L12.6719 5.51778C12.5993 5.37013 12.4797 5.25059 12.3321 5.17794C11.9618 4.99513 11.5118 5.14747 11.3266 5.51778L8.66644 10.9108L2.71566 11.7756C2.55159 11.799 2.40159 11.8764 2.28675 11.9936C2.14791 12.1363 2.0714 12.3283 2.07404 12.5273C2.07668 12.7264 2.15824 12.9163 2.30081 13.0553L6.60628 17.2529L5.58909 23.1803C5.56524 23.3182 5.5805 23.46 5.63314 23.5896C5.68578 23.7193 5.77369 23.8316 5.88691 23.9138C6.00013 23.996 6.13413 24.0449 6.2737 24.0549C6.41328 24.0648 6.55285 24.0355 6.67659 23.9701L11.9993 21.1717L17.3219 23.9701C17.4672 24.0475 17.636 24.0732 17.7977 24.0451C18.2055 23.9748 18.4797 23.5881 18.4094 23.1803L17.3922 17.2529L21.6977 13.0553C21.8149 12.9404 21.8922 12.7904 21.9157 12.6264C21.9789 12.2162 21.693 11.8365 21.2828 11.7756Z" fill="url(#paint0_linear_1544_54220)"/>
<path d="M47.2828 11.7756L41.3321 10.9108L38.6719 5.51778C38.5993 5.37013 38.4797 5.25059 38.3321 5.17794C37.9618 4.99513 37.5118 5.14747 37.3266 5.51778L34.6664 10.9108L28.7157 11.7756C28.5516 11.799 28.4016 11.8764 28.2868 11.9936C28.1479 12.1363 28.0714 12.3283 28.074 12.5273C28.0767 12.7264 28.1582 12.9163 28.3008 13.0553L32.6063 17.2529L31.5891 23.1803C31.5652 23.3182 31.5805 23.46 31.6331 23.5896C31.6858 23.7193 31.7737 23.8316 31.8869 23.9138C32.0001 23.996 32.1341 24.0449 32.2737 24.0549C32.4133 24.0648 32.5529 24.0355 32.6766 23.9701L37.9993 21.1717L43.3219 23.9701C43.4672 24.0475 43.636 24.0732 43.7977 24.0451C44.2055 23.9748 44.4797 23.5881 44.4094 23.1803L43.3922 17.2529L47.6977 13.0553C47.8149 12.9404 47.8922 12.7904 47.9157 12.6264C47.9789 12.2162 47.693 11.8365 47.2828 11.7756Z" fill="url(#paint1_linear_1544_54220)"/>
<path d="M73.2828 11.7756L67.3321 10.9108L64.6719 5.51778C64.5993 5.37013 64.4797 5.25059 64.3321 5.17794C63.9618 4.99513 63.5118 5.14747 63.3266 5.51778L60.6664 10.9108L54.7157 11.7756C54.5516 11.799 54.4016 11.8764 54.2868 11.9936C54.1479 12.1363 54.0714 12.3283 54.074 12.5273C54.0767 12.7264 54.1582 12.9163 54.3008 13.0553L58.6063 17.2529L57.5891 23.1803C57.5652 23.3182 57.5805 23.46 57.6331 23.5896C57.6858 23.7193 57.7737 23.8316 57.8869 23.9138C58.0001 23.996 58.1341 24.0449 58.2737 24.0549C58.4133 24.0648 58.5529 24.0355 58.6766 23.9701L63.9993 21.1717L69.3219 23.9701C69.4672 24.0475 69.636 24.0732 69.7977 24.0451C70.2055 23.9748 70.4797 23.5881 70.4094 23.1803L69.3922 17.2529L73.6977 13.0553C73.8149 12.9404 73.8922 12.7904 73.9157 12.6264C73.9789 12.2162 73.693 11.8365 73.2828 11.7756Z" fill="#D6D9DE"/>
<path d="M97.2828 11.7756L91.3321 10.9108L88.6719 5.51778C88.5993 5.37013 88.4797 5.25059 88.3321 5.17794C87.9618 4.99513 87.5118 5.14747 87.3266 5.51778L84.6664 10.9108L78.7157 11.7756C78.5516 11.799 78.4016 11.8764 78.2868 11.9936C78.1479 12.1363 78.0714 12.3283 78.074 12.5273C78.0767 12.7264 78.1582 12.9163 78.3008 13.0553L82.6063 17.2529L81.5891 23.1803C81.5652 23.3182 81.5805 23.46 81.6331 23.5896C81.6858 23.7193 81.7737 23.8316 81.8869 23.9138C82.0001 23.996 82.1341 24.0449 82.2737 24.0549C82.4133 24.0648 82.5529 24.0355 82.6766 23.9701L87.9993 21.1717L93.3219 23.9701C93.4672 24.0475 93.636 24.0732 93.7977 24.0451C94.2055 23.9748 94.4797 23.5881 94.4094 23.1803L93.3922 17.2529L97.6977 13.0553C97.8149 12.9404 97.8922 12.7904 97.9157 12.6264C97.9789 12.2162 97.693 11.8365 97.2828 11.7756Z" fill="#D6D9DE"/>
<path d="M125.283 11.7756L119.332 10.9108L116.672 5.51778C116.599 5.37013 116.48 5.25059 116.332 5.17794C115.962 4.99513 115.512 5.14747 115.327 5.51778L112.666 10.9108L106.716 11.7756C106.552 11.799 106.402 11.8764 106.287 11.9936C106.148 12.1363 106.071 12.3283 106.074 12.5273C106.077 12.7264 106.158 12.9163 106.301 13.0553L110.606 17.2529L109.589 23.1803C109.565 23.3182 109.58 23.46 109.633 23.5896C109.686 23.7193 109.774 23.8316 109.887 23.9138C110 23.996 110.134 24.0449 110.274 24.0549C110.413 24.0648 110.553 24.0355 110.677 23.9701L115.999 21.1717L121.322 23.9701C121.467 24.0475 121.636 24.0732 121.798 24.0451C122.206 23.9748 122.48 23.5881 122.409 23.1803L121.392 17.2529L125.698 13.0553C125.815 12.9404 125.892 12.7904 125.916 12.6264C125.979 12.2162 125.693 11.8365 125.283 11.7756Z" fill="#D6D9DE"/>
<defs>
<linearGradient id="paint0_linear_1544_54220" x1="-6.99337" y1="14.8517" x2="11.3971" y2="34.1098" gradientUnits="userSpaceOnUse">
<stop stop-color="#FFDC85"/>
<stop offset="1" stop-color="#FCC863"/>
</linearGradient>
<linearGradient id="paint1_linear_1544_54220" x1="19.0066" y1="14.8517" x2="37.3971" y2="34.1098" gradientUnits="userSpaceOnUse">
<stop stop-color="#FFDC85"/>
<stop offset="1" stop-color="#FCC863"/>
</linearGradient>
</defs>
</svg>
