<svg width="16" height="16" viewBox="0 0 16 16" fill="none" xmlns="http://www.w3.org/2000/svg">
<path d="M14.4282 7.32115H3.97999L10.2336 1.89258C10.3336 1.80508 10.2728 1.64258 10.1407 1.64258H8.56035C8.4907 1.64258 8.42463 1.66758 8.37285 1.71222L1.62463 7.56758C1.56283 7.62115 1.51326 7.68739 1.47929 7.76179C1.44532 7.8362 1.42773 7.91704 1.42773 7.99883C1.42773 8.08062 1.44532 8.16146 1.47929 8.23587C1.51326 8.31027 1.56283 8.3765 1.62463 8.43008L8.41213 14.3211C8.43892 14.3444 8.47106 14.3569 8.50499 14.3569H10.1389C10.2711 14.3569 10.3318 14.1926 10.2318 14.1069L3.97999 8.67829H14.4282C14.5068 8.67829 14.5711 8.61401 14.5711 8.53544V7.46401C14.5711 7.38544 14.5068 7.32115 14.4282 7.32115Z" fill="#69A1F4"/>
</svg>
