<svg width="16" height="16" viewBox="0 0 16 16" fill="none" xmlns="http://www.w3.org/2000/svg">
<path d="M15.0003 13.4269H1.00028C0.921708 13.4269 0.857422 13.4912 0.857422 13.5698V14.9983C0.857422 15.0769 0.921708 15.1412 1.00028 15.1412H15.0003C15.0788 15.1412 15.1431 15.0769 15.1431 14.9983V13.5698C15.1431 13.4912 15.0788 13.4269 15.0003 13.4269ZM3.38778 11.9983H4.90564C4.98064 11.9983 5.04849 11.9501 5.07171 11.8769L6.03064 8.91261H9.94492L10.8949 11.8769C10.9181 11.9483 10.9842 11.9983 11.061 11.9983H12.6521C12.6717 11.9983 12.6913 11.9948 12.7092 11.9894C12.7308 11.982 12.7508 11.9703 12.7679 11.9552C12.785 11.94 12.7989 11.9216 12.8089 11.901C12.8189 11.8804 12.8247 11.8581 12.8259 11.8352C12.8272 11.8124 12.824 11.7895 12.8163 11.768L9.10028 0.973326C9.08823 0.93924 9.06602 0.909667 9.03665 0.888593C9.00727 0.86752 8.97214 0.855959 8.93599 0.855469H7.10921C7.03421 0.855469 6.96814 0.901897 6.94492 0.973326L3.22349 11.768C3.21635 11.7858 3.21456 11.8055 3.21456 11.8251C3.21278 11.9198 3.29135 11.9983 3.38778 11.9983ZM7.95742 2.78225H8.03064L9.52706 7.49297H6.44492L7.95742 2.78225Z" fill="#9A9FA5"/>
</svg>
