<svg width="50" height="50" viewBox="0 0 50 50" fill="none" xmlns="http://www.w3.org/2000/svg">
<path d="M25 0.5C11.4703 0.5 0.5 11.4703 0.5 25C0.5 38.5297 11.4703 49.5 25 49.5C38.5297 49.5 49.5 38.5297 49.5 25C49.5 11.4703 38.5297 0.5 25 0.5ZM33.4602 25.3555L20.007 35.0898C19.7172 35.2977 19.3125 35.0898 19.3125 34.7344V32.1695C19.3125 31.6117 19.5805 31.0813 20.0344 30.7531L27.9859 25L20.0344 19.2469C19.5805 18.9188 19.3125 18.3937 19.3125 17.8305V15.2656C19.3125 14.9102 19.7172 14.7023 20.007 14.9102L33.4602 24.6445C33.7008 24.8195 33.7008 25.1805 33.4602 25.3555Z" fill="#D6D9DE"/>
</svg>
