<svg width="40" height="40" viewBox="0 0 40 40" fill="none" xmlns="http://www.w3.org/2000/svg">
<path d="M36.0527 27.418H12.791L13.9589 25.0391L33.3652 25.0039C34.0214 25.0039 34.5839 24.5352 34.7011 23.8867L37.3886 8.84375C37.4589 8.44922 37.3534 8.04297 37.0956 7.73438C36.9682 7.5825 36.8093 7.46016 36.6299 7.37585C36.4504 7.29153 36.2548 7.24726 36.0566 7.24609L11.3691 7.16406L11.1581 6.17188C11.0253 5.53906 10.455 5.07812 9.80658 5.07812H3.77142C3.40571 5.07813 3.05498 5.2234 2.79639 5.482C2.53779 5.74059 2.39252 6.09132 2.39252 6.45703C2.39252 6.82274 2.53779 7.17347 2.79639 7.43207C3.05498 7.69066 3.40571 7.83594 3.77142 7.83594H8.68939L9.61127 12.2187L11.8808 23.207L8.95892 27.9766C8.80719 28.1814 8.71579 28.4245 8.69508 28.6786C8.67437 28.9326 8.72517 29.1874 8.84174 29.4141C9.07611 29.8789 9.54877 30.1719 10.0722 30.1719H12.5253C12.0024 30.8665 11.7199 31.7126 11.7206 32.582C11.7206 34.793 13.5175 36.5898 15.7285 36.5898C17.9394 36.5898 19.7363 34.793 19.7363 32.582C19.7363 31.7109 19.4472 30.8633 18.9316 30.1719H25.2245C24.7016 30.8665 24.4191 31.7126 24.4199 32.582C24.4199 34.793 26.2167 36.5898 28.4277 36.5898C30.6386 36.5898 32.4355 34.793 32.4355 32.582C32.4355 31.7109 32.1464 30.8633 31.6308 30.1719H36.0566C36.8144 30.1719 37.4355 29.5547 37.4355 28.793C37.4332 28.4276 37.2865 28.078 37.0275 27.8204C36.7684 27.5629 36.418 27.4182 36.0527 27.418V27.418ZM11.9433 9.88281L34.4355 9.95703L32.2324 22.293L14.5644 22.3242L11.9433 9.88281ZM15.7285 33.8164C15.0488 33.8164 14.4941 33.2617 14.4941 32.582C14.4941 31.9023 15.0488 31.3477 15.7285 31.3477C16.4081 31.3477 16.9628 31.9023 16.9628 32.582C16.9628 32.9094 16.8328 33.2234 16.6013 33.4549C16.3698 33.6864 16.0558 33.8164 15.7285 33.8164V33.8164ZM28.4277 33.8164C27.748 33.8164 27.1933 33.2617 27.1933 32.582C27.1933 31.9023 27.748 31.3477 28.4277 31.3477C29.1074 31.3477 29.662 31.9023 29.662 32.582C29.662 32.9094 29.532 33.2234 29.3005 33.4549C29.069 33.6864 28.755 33.8164 28.4277 33.8164V33.8164Z" fill="#13171C"/>
</svg>
