<svg width="16" height="16" viewBox="0 0 16 16" fill="none" xmlns="http://www.w3.org/2000/svg">
<path d="M3.57171 2.9654H12.4289C12.5074 2.9654 12.5717 2.90112 12.5717 2.82254V1.82254C12.5717 1.74397 12.5074 1.67969 12.4289 1.67969H3.57171C3.49314 1.67969 3.42885 1.74397 3.42885 1.82254V2.82254C3.42885 2.90112 3.49314 2.9654 3.57171 2.9654ZM12.4289 10.5368C12.5074 10.5368 12.5717 10.4725 12.5717 10.394V9.39398C12.5717 9.3154 12.5074 9.25112 12.4289 9.25112H3.57171C3.49314 9.25112 3.42885 9.3154 3.42885 9.39398V10.394C3.42885 10.4725 3.49314 10.5368 3.57171 10.5368H12.4289ZM15.0003 13.0368H1.00028C0.921708 13.0368 0.857422 13.1011 0.857422 13.1797V14.1797C0.857422 14.2583 0.921708 14.3225 1.00028 14.3225H15.0003C15.0788 14.3225 15.1431 14.2583 15.1431 14.1797V13.1797C15.1431 13.1011 15.0788 13.0368 15.0003 13.0368ZM15.0003 5.4654H1.00028C0.921708 5.4654 0.857422 5.52969 0.857422 5.60826V6.60826C0.857422 6.68683 0.921708 6.75112 1.00028 6.75112H15.0003C15.0788 6.75112 15.1431 6.68683 15.1431 6.60826V5.60826C15.1431 5.52969 15.0788 5.4654 15.0003 5.4654Z" fill="#9A9FA5"/>
</svg>
