<svg width="40" height="40" viewBox="0 0 40 40" fill="none" xmlns="http://www.w3.org/2000/svg">
<path d="M34.2871 11.077H28.2157V10.3627C28.2157 5.82701 24.5371 2.14844 20.0014 2.14844C15.4657 2.14844 11.7871 5.82701 11.7871 10.3627V11.077H5.71568C4.9255 11.077 4.28711 11.7154 4.28711 12.5056V36.4342C4.28711 37.2243 4.9255 37.8627 5.71568 37.8627H34.2871C35.0773 37.8627 35.7157 37.2243 35.7157 36.4342V12.5056C35.7157 11.7154 35.0773 11.077 34.2871 11.077ZM15.0014 10.3627C15.0014 7.59933 17.238 5.36272 20.0014 5.36272C22.7648 5.36272 25.0014 7.59933 25.0014 10.3627V11.077H15.0014V10.3627ZM32.5014 34.6484H7.5014V14.2913H11.7871V18.2199C11.7871 18.4163 11.9478 18.577 12.1443 18.577H14.6443C14.8407 18.577 15.0014 18.4163 15.0014 18.2199V14.2913H25.0014V18.2199C25.0014 18.4163 25.1621 18.577 25.3585 18.577H27.8585C28.055 18.577 28.2157 18.4163 28.2157 18.2199V14.2913H32.5014V34.6484Z" fill="#13171C"/>
</svg>
