<svg width="40" height="40" viewBox="0 0 40 40" fill="none" xmlns="http://www.w3.org/2000/svg">
<g clip-path="url(#clip0_7197_924)">
<path d="M38.5714 4.27734H1.42857C0.638393 4.27734 0 4.91574 0 5.70592V34.2773C0 35.0675 0.638393 35.7059 1.42857 35.7059H38.5714C39.3616 35.7059 40 35.0675 40 34.2773V5.70592C40 4.91574 39.3616 4.27734 38.5714 4.27734ZM3.21429 7.49163H36.7857V12.8488H3.21429V7.49163ZM36.7857 32.4916H3.21429V16.7773H36.7857V32.4916ZM26.2054 29.6345H33.5714C33.7679 29.6345 33.9286 29.4738 33.9286 29.2773V26.0631C33.9286 25.8666 33.7679 25.7059 33.5714 25.7059H26.2054C26.0089 25.7059 25.8482 25.8666 25.8482 26.0631V29.2773C25.8482 29.4738 26.0089 29.6345 26.2054 29.6345Z" fill="#13171C"/>
</g>
<defs>
<clipPath id="clip0_7197_924">
<rect width="40" height="40" fill="white"/>
</clipPath>
</defs>
</svg>
