<svg width="34" height="34" viewBox="0 0 34 34" fill="none" xmlns="http://www.w3.org/2000/svg">
<path fill-rule="evenodd" clip-rule="evenodd" d="M7.47183 14.3454C7.08301 15.1908 7.08301 16.1525 7.08301 18.076V24.0832C7.08301 26.7545 7.08301 28.0902 7.91287 28.92C8.71197 29.7191 9.98003 29.7488 12.458 29.7499V22.6667C12.458 21.332 13.54 20.25 14.8747 20.25H19.1247C20.4594 20.25 21.5413 21.332 21.5413 22.6667V29.7499C24.0193 29.7488 25.2874 29.7191 26.0865 28.92C26.9163 28.0902 26.9163 26.7545 26.9163 24.0832V18.076C26.9163 16.1525 26.9163 15.1908 26.5275 14.3454C26.1387 13.5 25.4085 12.8741 23.9481 11.6223L22.5314 10.4081C19.8917 8.14546 18.5719 7.01416 16.9997 7.01416C15.4275 7.01416 14.1076 8.14546 11.4679 10.4081L10.0513 11.6223L10.0513 11.6223C8.59086 12.8741 7.86065 13.5 7.47183 14.3454ZM19.5413 29.7499V22.6667C19.5413 22.4365 19.3548 22.25 19.1247 22.25H14.8747C14.6446 22.25 14.458 22.4365 14.458 22.6667V29.7499H19.5413Z" fill="#D6D9DE"/>
</svg>
