<svg width="40" height="40" viewBox="0 0 40 40" fill="none" xmlns="http://www.w3.org/2000/svg">
<path d="M35.4675 31.2266C34.6253 29.2318 33.4032 27.4199 31.8693 25.8917C30.3399 24.3592 28.5283 23.1373 26.5344 22.2935C26.5166 22.2846 26.4987 22.2801 26.4809 22.2712C29.2621 20.2623 31.0701 16.99 31.0701 13.298C31.0701 7.18192 26.1148 2.22656 19.9987 2.22656C13.8826 2.22656 8.92729 7.18192 8.92729 13.298C8.92729 16.99 10.7353 20.2623 13.5166 22.2757C13.4987 22.2846 13.4809 22.2891 13.463 22.298C11.463 23.1417 9.66836 24.3516 8.12818 25.8962C6.59563 27.4255 5.37374 29.2372 4.52997 31.231C3.70105 33.1831 3.25399 35.2759 3.213 37.3962C3.21181 37.4439 3.22017 37.4913 3.23758 37.5356C3.255 37.58 3.28111 37.6204 3.3144 37.6545C3.34768 37.6887 3.38746 37.7158 3.43138 37.7343C3.4753 37.7528 3.52248 37.7623 3.57015 37.7623H6.24872C6.44515 37.7623 6.6014 37.606 6.60586 37.4141C6.69515 33.9676 8.07907 30.74 10.5255 28.2935C13.0568 25.7623 16.4184 24.3694 19.9987 24.3694C23.5791 24.3694 26.9407 25.7623 29.4719 28.2935C31.9184 30.74 33.3023 33.9676 33.3916 37.4141C33.396 37.6105 33.5523 37.7623 33.7487 37.7623H36.4273C36.475 37.7623 36.5221 37.7528 36.5661 37.7343C36.61 37.7158 36.6498 37.6887 36.683 37.6545C36.7163 37.6204 36.7424 37.58 36.7599 37.5356C36.7773 37.4913 36.7856 37.4439 36.7844 37.3962C36.7398 35.2623 36.2978 33.1864 35.4675 31.2266V31.2266ZM19.9987 20.9766C17.9496 20.9766 16.021 20.1775 14.5701 18.7266C13.1193 17.2757 12.3201 15.3471 12.3201 13.298C12.3201 11.2489 13.1193 9.32031 14.5701 7.86942C16.021 6.41853 17.9496 5.61942 19.9987 5.61942C22.0478 5.61942 23.9764 6.41853 25.4273 7.86942C26.8782 9.32031 27.6773 11.2489 27.6773 13.298C27.6773 15.3471 26.8782 17.2757 25.4273 18.7266C23.9764 20.1775 22.0478 20.9766 19.9987 20.9766Z" fill="#13171C"/>
</svg>
