<svg width="14" height="14" viewBox="0 0 14 14" fill="none" xmlns="http://www.w3.org/2000/svg">
<path d="M13.4625 12.6017L9.40469 8.54384C10.0344 7.72978 10.375 6.73447 10.375 5.68759C10.375 4.43447 9.88594 3.25947 9.00156 2.37353C8.11719 1.48759 6.93906 1.00009 5.6875 1.00009C4.43594 1.00009 3.25781 1.48915 2.37344 2.37353C1.4875 3.2579 1 4.43447 1 5.68759C1 6.93915 1.48906 8.11728 2.37344 9.00165C3.25781 9.88759 4.43438 10.3751 5.6875 10.3751C6.73438 10.3751 7.72813 10.0345 8.54219 9.40634L12.6 13.4626C12.6119 13.4745 12.626 13.4839 12.6416 13.4904C12.6571 13.4968 12.6738 13.5001 12.6906 13.5001C12.7075 13.5001 12.7241 13.4968 12.7397 13.4904C12.7552 13.4839 12.7694 13.4745 12.7813 13.4626L13.4625 12.7829C13.4744 12.771 13.4839 12.7569 13.4903 12.7413C13.4967 12.7258 13.5001 12.7091 13.5001 12.6923C13.5001 12.6754 13.4967 12.6588 13.4903 12.6432C13.4839 12.6277 13.4744 12.6136 13.4625 12.6017V12.6017ZM8.1625 8.16259C7.5 8.82353 6.62188 9.18759 5.6875 9.18759C4.75313 9.18759 3.875 8.82353 3.2125 8.16259C2.55156 7.50009 2.1875 6.62197 2.1875 5.68759C2.1875 4.75322 2.55156 3.87353 3.2125 3.21259C3.875 2.55165 4.75313 2.18759 5.6875 2.18759C6.62188 2.18759 7.50156 2.55009 8.1625 3.21259C8.82344 3.87509 9.1875 4.75322 9.1875 5.68759C9.1875 6.62197 8.82344 7.50165 8.1625 8.16259Z" fill="white"/>
</svg>
