<svg width="9" height="14" viewBox="0 0 9 14" fill="none" xmlns="http://www.w3.org/2000/svg">
<path d="M8.78616 1.75593V0.375568C8.78616 0.255925 8.64866 0.189854 8.5558 0.263068L0.505801 6.55057C0.437405 6.60376 0.382062 6.67187 0.343992 6.7497C0.305923 6.82753 0.286133 6.91303 0.286133 6.99968C0.286133 7.08632 0.305923 7.17182 0.343992 7.24965C0.382062 7.32748 0.437405 7.39559 0.505801 7.44878L8.5558 13.7363C8.65044 13.8095 8.78616 13.7434 8.78616 13.6238V12.2434C8.78616 12.1559 8.74509 12.072 8.67723 12.0184L2.24866 7.00057L8.67723 1.98093C8.74509 1.92735 8.78616 1.84343 8.78616 1.75593V1.75593Z" fill="#9A9FA5"/>
</svg>
