<svg width="32" height="28" viewBox="0 0 32 28" fill="none" xmlns="http://www.w3.org/2000/svg">
<path d="M30.6794 5.83619C30.2007 4.72775 29.5104 3.72329 28.6473 2.87904C27.7835 2.03228 26.765 1.35937 25.6473 0.8969C24.4883 0.415447 23.2452 0.169011 21.9901 0.1719C20.2294 0.1719 18.5116 0.654043 17.0187 1.56476C16.6616 1.78261 16.3223 2.0219 16.0008 2.28261C15.6794 2.0219 15.3401 1.78261 14.983 1.56476C13.4901 0.654043 11.7723 0.1719 10.0116 0.1719C8.74369 0.1719 7.51512 0.414757 6.35441 0.8969C5.23298 1.36119 4.22227 2.02904 3.35441 2.87904C2.49011 3.72234 1.79969 4.72703 1.32227 5.83619C0.825837 6.98976 0.572266 8.21476 0.572266 9.47547C0.572266 10.6648 0.815123 11.904 1.29727 13.1648C1.70084 14.2183 2.27941 15.3112 3.01869 16.4148C4.19012 18.1612 5.80084 19.9826 7.80084 21.829C11.1151 24.8898 14.3973 27.004 14.5366 27.0898L15.383 27.6326C15.758 27.8719 16.2401 27.8719 16.6151 27.6326L17.4616 27.0898C17.6008 27.0005 20.8794 24.8898 24.1973 21.829C26.1973 19.9826 27.808 18.1612 28.9794 16.4148C29.7187 15.3112 30.3008 14.2183 30.7008 13.1648C31.183 11.904 31.4258 10.6648 31.4258 9.47547C31.4294 8.21476 31.1758 6.98976 30.6794 5.83619ZM16.0008 24.8076C16.0008 24.8076 3.28655 16.6612 3.28655 9.47547C3.28655 5.83619 6.29727 2.88619 10.0116 2.88619C12.6223 2.88619 14.8866 4.34333 16.0008 6.4719C17.1151 4.34333 19.3794 2.88619 21.9901 2.88619C25.7044 2.88619 28.7151 5.83619 28.7151 9.47547C28.7151 16.6612 16.0008 24.8076 16.0008 24.8076Z" fill="#69A1F4"/>
</svg>
