<svg width="16" height="16" viewBox="0 0 16 16" fill="none" xmlns="http://www.w3.org/2000/svg">
<path d="M1.00028 2.9654H9.85742C9.93599 2.9654 10.0003 2.90112 10.0003 2.82254V1.82254C10.0003 1.74397 9.93599 1.67969 9.85742 1.67969H1.00028C0.921708 1.67969 0.857422 1.74397 0.857422 1.82254V2.82254C0.857422 2.90112 0.921708 2.9654 1.00028 2.9654ZM1.00028 10.5368H9.85742C9.93599 10.5368 10.0003 10.4725 10.0003 10.394V9.39398C10.0003 9.3154 9.93599 9.25112 9.85742 9.25112H1.00028C0.921708 9.25112 0.857422 9.3154 0.857422 9.39398V10.394C0.857422 10.4725 0.921708 10.5368 1.00028 10.5368ZM15.0003 13.0368H1.00028C0.921708 13.0368 0.857422 13.1011 0.857422 13.1797V14.1797C0.857422 14.2583 0.921708 14.3225 1.00028 14.3225H15.0003C15.0788 14.3225 15.1431 14.2583 15.1431 14.1797V13.1797C15.1431 13.1011 15.0788 13.0368 15.0003 13.0368ZM15.0003 5.4654H1.00028C0.921708 5.4654 0.857422 5.52969 0.857422 5.60826V6.60826C0.857422 6.68683 0.921708 6.75112 1.00028 6.75112H15.0003C15.0788 6.75112 15.1431 6.68683 15.1431 6.60826V5.60826C15.1431 5.52969 15.0788 5.4654 15.0003 5.4654Z" fill="#9A9FA5"/>
</svg>
