<svg width="32" height="32" viewBox="0 0 32 32" fill="none" xmlns="http://www.w3.org/2000/svg">
<path d="M25.0607 15.1008L8.96072 2.52584C8.91865 2.49272 8.86809 2.47213 8.81485 2.46645C8.76161 2.46077 8.70784 2.47022 8.65973 2.49372C8.61162 2.51721 8.57111 2.5538 8.54286 2.59928C8.5146 2.64477 8.49975 2.69729 8.5 2.75084V5.51155C8.5 5.68655 8.58215 5.85441 8.71786 5.96155L21.575 16.0008L8.71786 26.0401C8.57857 26.1473 8.5 26.3151 8.5 26.4901V29.2508C8.5 29.4901 8.775 29.6223 8.96072 29.4758L25.0607 16.9008C25.1976 16.7941 25.3083 16.6576 25.3844 16.5016C25.4605 16.3456 25.5001 16.1744 25.5001 16.0008C25.5001 15.8273 25.4605 15.656 25.3844 15.5001C25.3083 15.3441 25.1976 15.2076 25.0607 15.1008Z" fill="#9A9FA5"/>
</svg>
