<?xml version="1.0" encoding="utf-8"?>
<!-- Generator: Adobe Illustrator 16.0.3, SVG Export Plug-In . SVG Version: 6.00 Build 0)  -->
<!DOCTYPE svg PUBLIC "-//W3C//DTD SVG 1.1//EN" "http://www.w3.org/Graphics/SVG/1.1/DTD/svg11.dtd">
<svg version="1.1" id="Layer_1" xmlns="http://www.w3.org/2000/svg" xmlns:xlink="http://www.w3.org/1999/xlink" x="0px" y="0px"
	 width="24px" height="22px" viewBox="0 0 24 22" enable-background="new 0 0 24 22" xml:space="preserve">
<path fill="#69A1F4" d="M23.01,4.877c-0.359-0.831-0.877-1.584-1.523-2.218c-0.648-0.635-1.412-1.14-2.25-1.486
	c-0.869-0.361-1.802-0.546-2.743-0.544c-1.321,0-2.608,0.361-3.729,1.045c-0.268,0.163-0.522,0.343-0.764,0.538
	c-0.241-0.195-0.495-0.375-0.763-0.538C10.118,0.99,8.83,0.629,7.509,0.629c-0.951,0-1.873,0.182-2.743,0.544
	c-0.841,0.348-1.599,0.849-2.25,1.486C1.868,3.292,1.35,4.045,0.992,4.877C0.62,5.742,0.43,6.661,0.43,7.606
	c0,0.892,0.182,1.821,0.544,2.767c0.303,0.79,0.736,1.61,1.291,2.437c0.878,1.311,2.086,2.677,3.586,4.062
	c2.486,2.296,4.947,3.881,5.052,3.945l0.635,0.407c0.281,0.18,0.643,0.18,0.924,0l0.635-0.407c0.104-0.067,2.563-1.649,5.052-3.945
	c1.5-1.385,2.708-2.751,3.586-4.062c0.555-0.827,0.992-1.647,1.291-2.437c0.362-0.946,0.545-1.875,0.545-2.767
	C23.572,6.661,23.383,5.742,23.01,4.877z"/>
</svg>
