<svg width="24" height="22" viewBox="0 0 24 22" fill="#69A1F4" xmlns="http://www.w3.org/2000/svg">
<path d="M23.01 4.87714C22.651 4.04581 22.1333 3.29247 21.4859 2.65928C20.8381 2.02421 20.0742 1.51953 19.2359 1.17268C18.3667 0.811585 17.4344 0.626759 16.4931 0.628925C15.1725 0.628925 13.8842 0.990532 12.7645 1.67357C12.4967 1.83696 12.2422 2.01643 12.0011 2.21196C11.76 2.01643 11.5056 1.83696 11.2377 1.67357C10.1181 0.990532 8.82969 0.628925 7.50915 0.628925C6.55826 0.628925 5.63683 0.811068 4.76629 1.17268C3.92522 1.52089 3.16719 2.02178 2.51629 2.65928C1.86807 3.29175 1.35025 4.04527 0.992188 4.87714C0.619866 5.74232 0.429688 6.66107 0.429688 7.6066C0.429688 8.49857 0.61183 9.42803 0.973438 10.3736C1.27612 11.1637 1.71004 11.9834 2.26451 12.8111C3.14308 14.1209 4.35112 15.487 5.85112 16.8718C8.33683 19.1673 10.7984 20.753 10.9029 20.8173L11.5377 21.2245C11.819 21.4039 12.1806 21.4039 12.4618 21.2245L13.0967 20.8173C13.2011 20.7504 15.66 19.1673 18.1484 16.8718C19.6484 15.487 20.8565 14.1209 21.735 12.8111C22.2895 11.9834 22.7261 11.1637 23.0261 10.3736C23.3877 9.42803 23.5699 8.49857 23.5699 7.6066C23.5725 6.66107 23.3824 5.74232 23.01 4.87714ZM12.0011 19.1057C12.0011 19.1057 2.4654 12.9959 2.4654 7.6066C2.4654 4.87714 4.72344 2.66464 7.50915 2.66464C9.46719 2.66464 11.1654 3.7575 12.0011 5.35392C12.8368 3.7575 14.535 2.66464 16.4931 2.66464C19.2788 2.66464 21.5368 4.87714 21.5368 7.6066C21.5368 12.9959 12.0011 19.1057 12.0011 19.1057Z" style="background: #69A1F4" fill="#69A1F4"/>
</svg>
