<svg width="40" height="40" viewBox="0 0 40 40" fill="none" xmlns="http://www.w3.org/2000/svg">
<path d="M34.2861 17.8627H31.2504V7.86272C31.2504 4.70647 28.6924 2.14844 25.5361 2.14844H14.4647C11.3085 2.14844 8.75042 4.70647 8.75042 7.86272V17.8627H5.7147C4.92453 17.8627 4.28613 18.5011 4.28613 19.2913V36.4342C4.28613 37.2243 4.92453 37.8627 5.7147 37.8627H34.2861C35.0763 37.8627 35.7147 37.2243 35.7147 36.4342V19.2913C35.7147 18.5011 35.0763 17.8627 34.2861 17.8627ZM11.9647 7.86272C11.9647 6.48326 13.0852 5.36272 14.4647 5.36272H25.5361C26.9156 5.36272 28.0361 6.48326 28.0361 7.86272V17.8627H11.9647V7.86272ZM32.5004 34.6484H7.50042V21.077H32.5004V34.6484ZM18.7504 28.4431V30.8092C18.7504 31.0056 18.9111 31.1663 19.1076 31.1663H20.8933C21.0897 31.1663 21.2504 31.0056 21.2504 30.8092V28.4431C21.6189 28.1785 21.894 27.8038 22.036 27.373C22.178 26.9421 22.1797 26.4773 22.0407 26.0455C21.9017 25.6136 21.6293 25.237 21.2627 24.9698C20.896 24.7027 20.4541 24.5587 20.0004 24.5587C19.5468 24.5587 19.1048 24.7027 18.7382 24.9698C18.3715 25.237 18.0991 25.6136 17.9602 26.0455C17.8212 26.4773 17.8228 26.9421 17.9648 27.373C18.1068 27.8038 18.3819 28.1785 18.7504 28.4431V28.4431Z" fill="#13171C"/>
</svg>
