<svg width="40" height="40" viewBox="0 0 40 40" fill="none" xmlns="http://www.w3.org/2000/svg">
<path d="M27.1872 18.7518H21.2497V12.8143C21.2497 12.6425 21.1091 12.5018 20.9372 12.5018H19.0622C18.8903 12.5018 18.7497 12.6425 18.7497 12.8143V18.7518H12.8122C12.6403 18.7518 12.4997 18.8925 12.4997 19.0643V20.9393C12.4997 21.1112 12.6403 21.2518 12.8122 21.2518H18.7497V27.1893C18.7497 27.3612 18.8903 27.5018 19.0622 27.5018H20.9372C21.1091 27.5018 21.2497 27.3612 21.2497 27.1893V21.2518H27.1872C27.3591 21.2518 27.4997 21.1112 27.4997 20.9393V19.0643C27.4997 18.8925 27.3591 18.7518 27.1872 18.7518Z" fill="#13171C"/>
<path d="M20 2.5C10.3359 2.5 2.5 10.3359 2.5 20C2.5 29.6641 10.3359 37.5 20 37.5C29.6641 37.5 37.5 29.6641 37.5 20C37.5 10.3359 29.6641 2.5 20 2.5ZM20 34.5313C11.9766 34.5313 5.46875 28.0234 5.46875 20C5.46875 11.9766 11.9766 5.46875 20 5.46875C28.0234 5.46875 34.5313 11.9766 34.5313 20C34.5313 28.0234 28.0234 34.5313 20 34.5313Z" fill="#13171C"/>
</svg>
