<svg width="30" height="30" viewBox="0 0 30 30" fill="none" xmlns="http://www.w3.org/2000/svg">
<path d="M12.4395 22.4355L8.04199 17.2207L3.98438 22.0342V23.2031H26.0156V22.3125L19.2803 14.3262L12.4395 22.4355Z" fill="#E6F7FF"/>
<path d="M3.98438 19.1221L7.86328 14.5225C7.95703 14.4111 8.12695 14.4111 8.2207 14.5225L12.4395 19.5234L19.1016 11.625C19.1953 11.5137 19.3652 11.5137 19.459 11.625L26.0156 19.4004V6.79688H3.98438V19.1221ZM8.90625 8.20312C9.24481 8.20312 9.58006 8.26981 9.89286 8.39937C10.2056 8.52894 10.4899 8.71884 10.7293 8.95824C10.9687 9.19764 11.1586 9.48185 11.2881 9.79464C11.4177 10.1074 11.4844 10.4427 11.4844 10.7812C11.4844 11.1198 11.4177 11.4551 11.2881 11.7679C11.1586 12.0806 10.9687 12.3649 10.7293 12.6043C10.4899 12.8437 10.2056 13.0336 9.89286 13.1631C9.58006 13.2927 9.24481 13.3594 8.90625 13.3594C8.22249 13.3594 7.56673 13.0878 7.08324 12.6043C6.59975 12.1208 6.32812 11.465 6.32812 10.7812C6.32812 10.0975 6.59975 9.44173 7.08324 8.95824C7.56673 8.47475 8.22249 8.20312 8.90625 8.20312Z" fill="#E6F7FF"/>
<path d="M8.08594 10.7812C8.08594 10.9988 8.17236 11.2075 8.3262 11.3613C8.48004 11.5151 8.68869 11.6016 8.90625 11.6016C9.12381 11.6016 9.33246 11.5151 9.4863 11.3613C9.64014 11.2075 9.72656 10.9988 9.72656 10.7812C9.72656 10.5637 9.64014 10.355 9.4863 10.2012C9.33246 10.0474 9.12381 9.96094 8.90625 9.96094C8.68869 9.96094 8.48004 10.0474 8.3262 10.2012C8.17236 10.355 8.08594 10.5637 8.08594 10.7812Z" fill="#E6F7FF"/>
<path d="M27.1875 4.6875H2.8125C2.29395 4.6875 1.875 5.10645 1.875 5.625V24.375C1.875 24.8936 2.29395 25.3125 2.8125 25.3125H27.1875C27.7061 25.3125 28.125 24.8936 28.125 24.375V5.625C28.125 5.10645 27.7061 4.6875 27.1875 4.6875ZM26.0156 23.2031H3.98438V22.0342L8.04199 17.2207L12.4395 22.4355L19.2803 14.3262L26.0156 22.3125V23.2031ZM26.0156 19.4004L19.459 11.625C19.3652 11.5137 19.1953 11.5137 19.1016 11.625L12.4395 19.5234L8.2207 14.5225C8.12695 14.4111 7.95703 14.4111 7.86328 14.5225L3.98438 19.1221V6.79688H26.0156V19.4004Z" fill="#69A1F4"/>
<path d="M8.90625 13.3594C9.24481 13.3594 9.58006 13.2927 9.89286 13.1631C10.2056 13.0336 10.4899 12.8437 10.7293 12.6043C10.9687 12.3649 11.1586 12.0806 11.2881 11.7679C11.4177 11.4551 11.4844 11.1198 11.4844 10.7812C11.4844 10.4427 11.4177 10.1074 11.2881 9.79464C11.1586 9.48185 10.9687 9.19764 10.7293 8.95824C10.4899 8.71884 10.2056 8.52894 9.89286 8.39937C9.58006 8.26981 9.24481 8.20312 8.90625 8.20312C8.22249 8.20312 7.56673 8.47475 7.08324 8.95824C6.59975 9.44173 6.32812 10.0975 6.32812 10.7812C6.32812 11.465 6.59975 12.1208 7.08324 12.6043C7.56673 13.0878 8.22249 13.3594 8.90625 13.3594ZM8.90625 9.96094C9.36035 9.96094 9.72656 10.3271 9.72656 10.7812C9.72656 11.2354 9.36035 11.6016 8.90625 11.6016C8.45215 11.6016 8.08594 11.2354 8.08594 10.7812C8.08594 10.3271 8.45215 9.96094 8.90625 9.96094Z" fill="#69A1F4"/>
</svg>
