<svg width="32" height="32" viewBox="0 0 32 32" fill="none" xmlns="http://www.w3.org/2000/svg">
<path d="M4 15.9688C4 16.2314 4.05173 16.4915 4.15224 16.7341C4.25275 16.9768 4.40007 17.1972 4.58579 17.383C4.7715 17.5687 4.99198 17.716 5.23463 17.8165C5.47728 17.917 5.73736 17.9688 6 17.9688C6.26264 17.9688 6.52272 17.917 6.76537 17.8165C7.00802 17.716 7.2285 17.5687 7.41421 17.383C7.59993 17.1972 7.74725 16.9768 7.84776 16.7341C7.94827 16.4915 8 16.2314 8 15.9688C8 15.7061 7.94827 15.446 7.84776 15.2034C7.74725 14.9607 7.59993 14.7403 7.41421 14.5545C7.2285 14.3688 7.00802 14.2215 6.76537 14.121C6.52272 14.0205 6.26264 13.9688 6 13.9688C5.73736 13.9688 5.47728 14.0205 5.23463 14.121C4.99198 14.2215 4.7715 14.3688 4.58579 14.5545C4.40007 14.7403 4.25275 14.9607 4.15224 15.2034C4.05173 15.446 4 15.7061 4 15.9688ZM14 15.9688C14 16.4992 14.2107 17.0079 14.5858 17.383C14.9609 17.758 15.4696 17.9688 16 17.9688C16.5304 17.9688 17.0391 17.758 17.4142 17.383C17.7893 17.0079 18 16.4992 18 15.9688C18 15.4383 17.7893 14.9296 17.4142 14.5545C17.0391 14.1795 16.5304 13.9688 16 13.9688C15.4696 13.9688 14.9609 14.1795 14.5858 14.5545C14.2107 14.9296 14 15.4383 14 15.9688ZM24 15.9688C24 16.4992 24.2107 17.0079 24.5858 17.383C24.9609 17.758 25.4696 17.9688 26 17.9688C26.5304 17.9688 27.0391 17.758 27.4142 17.383C27.7893 17.0079 28 16.4992 28 15.9688C28 15.4383 27.7893 14.9296 27.4142 14.5545C27.0391 14.1795 26.5304 13.9688 26 13.9688C25.4696 13.9688 24.9609 14.1795 24.5858 14.5545C24.2107 14.9296 24 15.4383 24 15.9688Z" fill="#69A1F4"/>
</svg>
