<svg width="32" height="32" viewBox="0 0 32 32" fill="none" xmlns="http://www.w3.org/2000/svg">
<path d="M30.375 0.375H1.625C0.933594 0.375 0.375 0.933594 0.375 1.625V30.375C0.375 31.0664 0.933594 31.625 1.625 31.625H30.375C31.0664 31.625 31.625 31.0664 31.625 30.375V1.625C31.625 0.933594 31.0664 0.375 30.375 0.375ZM22.4102 21.6992C22.582 21.9023 22.4375 22.2109 22.1719 22.2109H19.8711C19.6875 22.2109 19.5117 22.1289 19.3906 21.9883L16 17.9453L12.6094 21.9883C12.4922 22.1289 12.3164 22.2109 12.1289 22.2109H9.82812C9.5625 22.2109 9.41797 21.9023 9.58984 21.6992L14.3672 16L9.58984 10.3008C9.55134 10.2555 9.52664 10.2001 9.51867 10.1412C9.51071 10.0823 9.51981 10.0224 9.5449 9.96851C9.56998 9.91464 9.61001 9.86909 9.66021 9.83728C9.71041 9.80547 9.76869 9.78874 9.82812 9.78906H12.1289C12.3125 9.78906 12.4883 9.87109 12.6094 10.0117L16 14.0547L19.3906 10.0117C19.5078 9.87109 19.6836 9.78906 19.8711 9.78906H22.1719C22.4375 9.78906 22.582 10.0977 22.4102 10.3008L17.6328 16L22.4102 21.6992V21.6992Z" fill="white"/>
</svg>
