<svg width="16" height="16" viewBox="0 0 16 16" fill="none" xmlns="http://www.w3.org/2000/svg">
<path d="M11.3179 7.45525C11.9179 6.83025 12.2857 5.9856 12.2857 5.05703V4.87489C12.2857 2.95346 10.7125 1.39453 8.77321 1.39453H3.48929C3.21964 1.39453 3 1.61417 3 1.88382V14.0106C3 14.3017 3.23571 14.5374 3.52679 14.5374H9.21786C11.3071 14.5374 13 12.8552 13 10.7785V10.582C13 9.27846 12.3321 8.13025 11.3179 7.45525ZM4.71429 3.10882H8.72679C9.74643 3.10882 10.5714 3.90167 10.5714 4.88203V5.05167C10.5714 6.03025 9.74464 6.82489 8.72679 6.82489H4.71429V3.10882ZM11.2607 10.7767C11.2607 11.8999 10.3375 12.8106 9.19821 12.8106H4.71429V8.54989H9.19821C10.3375 8.54989 11.2607 9.4606 11.2607 10.5838V10.7767Z" fill="#9A9FA5"/>
</svg>
