<svg width="25" height="25" viewBox="0 0 25 25" fill="none" xmlns="http://www.w3.org/2000/svg">
<path d="M15.8727 7.72887L16.3966 8.58064L17.2484 8.05673L16.7245 7.20496L15.8727 7.72887ZM12.3961 11.0413L16.3966 8.58064L15.3488 6.8771L11.3483 9.33777L12.3961 11.0413ZM16.7245 7.20496L14.2638 3.20442L12.5603 4.25225L15.0209 8.25278L16.7245 7.20496Z" fill="white"/>
<path d="M18.4797 11.3376C18.8451 12.5637 18.7957 13.8761 18.3392 15.0713C17.8827 16.2665 17.0445 17.2776 15.9548 17.9479C14.865 18.6182 13.5846 18.9102 12.312 18.7786C11.0393 18.647 9.84573 18.0991 8.91623 17.22C7.98672 16.3408 7.37328 15.1796 7.17104 13.9162C6.9688 12.6529 7.18907 11.3582 7.79768 10.2328C8.40628 9.10745 9.36922 8.21435 10.5371 7.69203C11.7051 7.16972 13.0127 7.04737 14.2572 7.34397" stroke="white" stroke-width="2" stroke-linecap="round"/>
</svg>
