<svg width="40" height="40" viewBox="0 0 40 40" fill="none" xmlns="http://www.w3.org/2000/svg">
<g clip-path="url(#clip0_7197_964)">
<path d="M22.7239 15.9374C21.6926 15.9374 20.8935 16.7365 20.8935 17.7231C20.8935 18.7097 21.6926 19.5088 22.7239 19.5088C23.6658 19.5088 24.4649 18.7097 24.4649 17.7231C24.4649 16.7365 23.6658 15.9374 22.7239 15.9374ZM10.2239 15.9374C9.19263 15.9374 8.39352 16.7365 8.39352 17.7231C8.39352 18.7097 9.19263 19.5088 10.2239 19.5088C11.1658 19.5088 11.9649 18.7097 11.9649 17.7231C11.9649 16.7365 11.1658 15.9374 10.2239 15.9374Z" fill="#13171C"/>
<path d="M37.053 12.5411C34.9875 9.69794 32.0093 7.64941 28.6155 6.73749V6.74195C27.8521 5.89374 26.9905 5.11249 26.0262 4.41606C18.7182 -0.896441 8.45923 0.724096 3.1244 8.03213C-1.1747 13.9696 -0.991667 21.9562 3.39226 27.6303L3.42798 33.55C3.42798 33.6928 3.4503 33.8357 3.49494 33.9696C3.55109 34.1485 3.64197 34.3146 3.76236 34.4583C3.88275 34.6021 4.03031 34.7207 4.19658 34.8073C4.36285 34.894 4.54457 34.947 4.73136 34.9634C4.91814 34.9797 5.10631 34.9591 5.28512 34.9027L10.9369 33.1214C12.4324 33.6527 13.9771 33.9562 15.5128 34.0411L15.4905 34.0589C19.4682 36.9562 24.6824 37.8268 29.4637 36.2464L35.1378 38.0946C35.2807 38.1393 35.428 38.1661 35.5798 38.1661C36.3699 38.1661 37.0083 37.5277 37.0083 36.7375V30.7553C40.9414 25.4161 41.0441 18.0366 37.053 12.5411ZM11.5619 29.9518L11.0262 29.7286L6.60655 31.1125L6.5619 26.4696L6.20476 26.0678C2.42798 21.4607 2.17798 14.8223 5.71369 9.95177C10.0173 4.04999 18.2673 2.74642 24.1512 7.00535C30.053 11.2955 31.361 19.5321 27.0976 25.3982C23.5217 30.3045 17.1199 32.117 11.5619 29.9518ZM34.1066 29.1928L33.7494 29.6393L33.7941 34.2821L29.4191 32.8089L28.8833 33.0321C26.3833 33.9607 23.7182 34.0366 21.2494 33.3446L21.2405 33.3402C24.6335 32.2996 27.5973 30.1864 29.6869 27.3178C33.0976 22.617 33.6512 16.7107 31.6691 11.675L31.6958 11.6928C32.7226 12.4295 33.6646 13.3491 34.4637 14.4607C37.7048 18.9071 37.5217 24.9607 34.1066 29.1928Z" fill="#13171C"/>
<path d="M16.4739 15.9374C15.4426 15.9374 14.6435 16.7365 14.6435 17.7231C14.6435 18.7097 15.4426 19.5088 16.4739 19.5088C17.4158 19.5088 18.2149 18.7097 18.2149 17.7231C18.2149 16.7365 17.4158 15.9374 16.4739 15.9374Z" fill="#13171C"/>
</g>
<defs>
<clipPath id="clip0_7197_964">
<rect width="40" height="40" fill="white"/>
</clipPath>
</defs>
</svg>
