<svg width="40" height="40" viewBox="0 0 40 40" fill="none" xmlns="http://www.w3.org/2000/svg">
<path d="M20 2.5C10.3359 2.5 2.5 10.3359 2.5 20C2.5 29.6641 10.3359 37.5 20 37.5C29.6641 37.5 37.5 29.6641 37.5 20C37.5 10.3359 29.6641 2.5 20 2.5ZM20 34.5313C11.9766 34.5313 5.46875 28.0234 5.46875 20C5.46875 11.9766 11.9766 5.46875 20 5.46875C28.0234 5.46875 34.5313 11.9766 34.5313 20C34.5313 28.0234 28.0234 34.5313 20 34.5313Z" fill="#13171C"/>
<path d="M24.3588 12.3699C23.1869 11.3425 21.64 10.78 19.9994 10.78C18.3588 10.78 16.8119 11.3464 15.64 12.3699C14.4213 13.4363 13.7494 14.8699 13.7494 16.405V16.7019C13.7494 16.8738 13.89 17.0144 14.0619 17.0144H15.9369C16.1088 17.0144 16.2494 16.8738 16.2494 16.7019V16.405C16.2494 14.6824 17.933 13.28 19.9994 13.28C22.0658 13.28 23.7494 14.6824 23.7494 16.405C23.7494 17.6199 22.89 18.7332 21.558 19.2449C20.7299 19.5613 20.0267 20.116 19.5228 20.8425C19.0111 21.5847 18.7455 22.4753 18.7455 23.3777V24.2175C18.7455 24.3894 18.8861 24.53 19.058 24.53H20.933C21.1049 24.53 21.2455 24.3894 21.2455 24.2175V23.3308C21.2475 22.9516 21.3638 22.5818 21.5791 22.2696C21.7944 21.9575 22.0988 21.7174 22.4525 21.5808C24.7572 20.6941 26.2455 18.6628 26.2455 16.405C26.2494 14.8699 25.5775 13.4363 24.3588 12.3699ZM18.4369 28.5925C18.4369 29.0069 18.6015 29.4044 18.8945 29.6974C19.1876 29.9904 19.585 30.155 19.9994 30.155C20.4138 30.155 20.8112 29.9904 21.1042 29.6974C21.3973 29.4044 21.5619 29.0069 21.5619 28.5925C21.5619 28.1781 21.3973 27.7807 21.1042 27.4877C20.8112 27.1946 20.4138 27.03 19.9994 27.03C19.585 27.03 19.1876 27.1946 18.8945 27.4877C18.6015 27.7807 18.4369 28.1781 18.4369 28.5925Z" fill="#13171C"/>
</svg>
