<svg width="7" height="7" viewBox="0 0 7 7" fill="none" xmlns="http://www.w3.org/2000/svg">
<path d="M6.594 3.4C6.594 3.19 6.51 3.008 6.342 2.868C6.174 2.728 5.978 2.644 5.768 2.644C5.488 2.644 5.124 2.854 4.69 3.26C4.382 3.554 4.046 3.778 3.696 3.918C3.724 3.526 3.836 3.148 4.004 2.784C4.2 2.35 4.312 2.042 4.312 1.86C4.312 1.622 4.228 1.412 4.088 1.244C3.92 1.076 3.724 0.992 3.5 0.992C3.262 0.992 3.066 1.076 2.912 1.244C2.758 1.412 2.688 1.622 2.688 1.86C2.688 2.042 2.786 2.35 2.996 2.784C3.164 3.148 3.262 3.526 3.304 3.918C2.94 3.778 2.618 3.554 2.31 3.26C1.862 2.854 1.512 2.644 1.232 2.644C1.008 2.644 0.826 2.728 0.658 2.868C0.49 3.008 0.406 3.19 0.406 3.4C0.406 3.68 0.504 3.89 0.7 4.044C0.896 4.212 1.134 4.282 1.414 4.282C1.484 4.282 1.652 4.268 1.904 4.24C2.156 4.212 2.352 4.198 2.478 4.198C2.688 4.198 2.926 4.226 3.178 4.268C2.954 4.52 2.632 4.772 2.24 4.996C1.904 5.192 1.694 5.332 1.582 5.43C1.386 5.626 1.288 5.864 1.288 6.116C1.288 6.34 1.358 6.536 1.512 6.676C1.666 6.844 1.862 6.914 2.086 6.914C2.576 6.914 2.912 6.48 3.08 5.612C3.164 5.164 3.304 4.786 3.5 4.492C3.682 4.786 3.822 5.164 3.92 5.612C4.088 6.48 4.41 6.914 4.914 6.914C5.138 6.914 5.32 6.844 5.488 6.676C5.628 6.536 5.712 6.34 5.712 6.116C5.712 5.864 5.614 5.626 5.418 5.43C5.306 5.332 5.082 5.192 4.76 4.996C4.354 4.772 4.046 4.52 3.822 4.268C4.074 4.226 4.298 4.198 4.522 4.198C4.634 4.198 4.83 4.212 5.096 4.24C5.348 4.268 5.502 4.282 5.586 4.282C5.852 4.282 6.09 4.212 6.3 4.044C6.496 3.89 6.594 3.68 6.594 3.4Z" fill="#69A1F4"/>
</svg>
