<svg width="72" height="72" viewBox="0 0 72 72" fill="none" xmlns="http://www.w3.org/2000/svg">
<path d="M36 4.5C18.6047 4.5 4.5 18.6047 4.5 36C4.5 53.3953 18.6047 67.5 36 67.5C53.3953 67.5 67.5 53.3953 67.5 36C67.5 18.6047 53.3953 4.5 36 4.5ZM36 62.1562C21.5578 62.1562 9.84375 50.4422 9.84375 36C9.84375 21.5578 21.5578 9.84375 36 9.84375C50.4422 9.84375 62.1562 21.5578 62.1562 36C62.1562 50.4422 50.4422 62.1562 36 62.1562Z" fill="#D6D9DE"/>
<path d="M50.5809 35.0913L29.7613 19.9741C29.5944 19.8517 29.3967 19.7781 29.1903 19.7614C28.9839 19.7448 28.777 19.7858 28.5926 19.8798C28.4081 19.9739 28.2534 20.1173 28.1457 20.2941C28.038 20.4709 27.9814 20.6741 27.9824 20.8811V51.1155C27.9824 52.0366 29.0231 52.5569 29.7613 52.0226L50.5809 36.9054C50.7246 36.8018 50.8417 36.6655 50.9224 36.5078C51.0032 36.3501 51.0453 36.1755 51.0453 35.9983C51.0453 35.8212 51.0032 35.6465 50.9224 35.4888C50.8417 35.3311 50.7246 35.1949 50.5809 35.0913V35.0913ZM32.4684 44.5132V27.4835L44.1895 35.9983L32.4684 44.5132V44.5132Z" fill="#D6D9DE"/>
</svg>
