<svg width="24" height="4" viewBox="0 0 24 4" fill="none" xmlns="http://www.w3.org/2000/svg">
<path d="M0 2C-5.5348e-09 2.26264 0.0517314 2.52272 0.152241 2.76537C0.25275 3.00802 0.400069 3.2285 0.585787 3.41421C0.771504 3.59993 0.991982 3.74725 1.23463 3.84776C1.47728 3.94827 1.73736 4 2 4C2.26264 4 2.52272 3.94827 2.76537 3.84776C3.00802 3.74725 3.2285 3.59993 3.41421 3.41421C3.59993 3.2285 3.74725 3.00802 3.84776 2.76537C3.94827 2.52272 4 2.26264 4 2C4 1.73736 3.94827 1.47728 3.84776 1.23463C3.74725 0.991982 3.59993 0.771503 3.41421 0.585786C3.2285 0.400069 3.00802 0.252751 2.76537 0.152241C2.52272 0.0517319 2.26264 0 2 0C1.73736 0 1.47728 0.0517319 1.23463 0.152241C0.991982 0.252751 0.771504 0.400069 0.585787 0.585786C0.400069 0.771503 0.25275 0.991982 0.152241 1.23463C0.0517314 1.47728 -5.5348e-09 1.73736 0 2ZM10 2C10 2.53043 10.2107 3.03914 10.5858 3.41421C10.9609 3.78929 11.4696 4 12 4C12.5304 4 13.0391 3.78929 13.4142 3.41421C13.7893 3.03914 14 2.53043 14 2C14 1.46957 13.7893 0.960859 13.4142 0.585786C13.0391 0.210713 12.5304 0 12 0C11.4696 0 10.9609 0.210713 10.5858 0.585786C10.2107 0.960859 10 1.46957 10 2ZM20 2C20 2.53043 20.2107 3.03914 20.5858 3.41421C20.9609 3.78929 21.4696 4 22 4C22.5304 4 23.0391 3.78929 23.4142 3.41421C23.7893 3.03914 24 2.53043 24 2C24 1.46957 23.7893 0.960859 23.4142 0.585786C23.0391 0.210713 22.5304 0 22 0C21.4696 0 20.9609 0.210713 20.5858 0.585786C20.2107 0.960859 20 1.46957 20 2Z" fill="#69A1F4"/>
</svg>
