<svg width="14" height="11" viewBox="0 0 14 11" fill="none" xmlns="http://www.w3.org/2000/svg">
<path d="M7.46838 -1.62402H6.53088C6.44755 -1.62402 6.40588 -1.58236 6.40588 -1.49902V3.40723H1.75C1.66667 3.40723 1.625 3.44889 1.625 3.53223V4.46973C1.625 4.55306 1.66667 4.59473 1.75 4.59473H6.40588V9.50098C6.40588 9.58431 6.44755 9.62598 6.53088 9.62598H7.46838C7.55172 9.62598 7.59338 9.58431 7.59338 9.50098V4.59473H12.25C12.3333 4.59473 12.375 4.55306 12.375 4.46973V3.53223C12.375 3.44889 12.3333 3.40723 12.25 3.40723H7.59338V-1.49902C7.59338 -1.58236 7.55172 -1.62402 7.46838 -1.62402Z" fill="#505357"/>
</svg>
