<svg width="14" height="14" viewBox="0 0 14 14" fill="none" xmlns="http://www.w3.org/2000/svg">
<path d="M8.04093 6.99833L13.3144 0.712389C13.4028 0.607924 13.3284 0.449219 13.1918 0.449219H11.5887C11.4943 0.449219 11.4039 0.491406 11.3416 0.563728L6.99227 5.74877L2.64293 0.563728C2.58267 0.491406 2.49226 0.449219 2.39584 0.449219H0.792711C0.656104 0.449219 0.581774 0.607924 0.670166 0.712389L5.9436 6.99833L0.670166 13.2843C0.650366 13.3075 0.637663 13.336 0.633565 13.3663C0.629468 13.3966 0.634148 13.4274 0.64705 13.4551C0.659953 13.4829 0.680536 13.5063 0.706355 13.5226C0.732175 13.539 0.762146 13.5476 0.792711 13.5474H2.39584C2.49026 13.5474 2.58066 13.5052 2.64293 13.4329L6.99227 8.24788L11.3416 13.4329C11.4019 13.5052 11.4923 13.5474 11.5887 13.5474H13.1918C13.3284 13.5474 13.4028 13.3887 13.3144 13.2843L8.04093 6.99833Z" fill="#9A9FA5"/>
</svg>
