<svg width="20" height="17" viewBox="0 0 20 17" fill="none" xmlns="http://www.w3.org/2000/svg">
<path d="M20 8.08496C20 10.264 20 12.4431 20 14.6273C19.9896 14.6581 19.9739 14.6838 19.9687 14.7146C19.7338 15.871 18.8466 16.5956 17.6514 16.5956C12.5522 16.5956 7.45825 16.5956 2.35908 16.5956C0.98643 16.5956 0 15.6191 0 14.2624C0 12.2735 0 10.2897 0 8.30081C0 8.234 0 8.16719 0 8.08496C0.0730689 8.10552 0.125261 8.1158 0.172234 8.13635C3.18894 9.12309 6.20564 10.1098 9.21712 11.1069C9.7547 11.2867 10.261 11.2867 10.7985 11.1069C13.8622 10.0893 16.9311 9.08712 20 8.08496Z" fill="#D6D9DE"/>
<path d="M19.9948 6.70449C18.8002 7.10735 17.6057 7.51022 16.4111 7.91308C14.3976 8.588 12.3789 9.2577 10.3653 9.93786C10.1097 10.0216 9.88021 10.0216 9.62983 9.93262C6.49478 8.87576 3.35973 7.82937 0.21947 6.7882C0.042113 6.73065 -0.00483442 6.65217 0.00038196 6.47428C0.0108147 5.93539 0.00559834 5.39126 0.00559834 4.84714C0.0108147 3.50775 0.996711 2.50844 2.33732 2.50321C3.6988 2.49798 5.05506 2.50321 6.41654 2.50321C6.49478 2.50321 6.56781 2.50321 6.67735 2.50321C6.67735 2.19976 6.67214 1.912 6.67735 1.62947C6.69822 0.83421 7.23029 0.195909 8.00232 0.0337172C8.12229 0.0075573 8.24749 0.00232532 8.37268 0.00232532C9.45769 0.00232532 10.5479 -0.00290666 11.6329 0.00232532C12.478 0.0075573 13.13 0.535987 13.2969 1.34171C13.3282 1.48298 13.3282 1.62424 13.3282 1.77073C13.3335 2.00617 13.3282 2.24161 13.3282 2.50844C13.4169 2.50844 13.49 2.50844 13.5682 2.50844C14.9036 2.50844 16.239 2.5346 17.5692 2.50321C18.9046 2.47182 19.8279 3.4345 19.9687 4.44428C19.9739 4.47044 19.9896 4.49136 20 4.51752C19.9948 5.24477 19.9948 5.97201 19.9948 6.70449ZM8.34138 2.49275C9.4629 2.49275 10.5531 2.49275 11.659 2.49275C11.659 2.21545 11.659 1.94862 11.659 1.68179C10.5479 1.68179 9.44725 1.68179 8.34138 1.68179C8.34138 1.95909 8.34138 2.21545 8.34138 2.49275Z" fill="#D6D9DE"/>
</svg>
