<svg width="40" height="40" viewBox="0 0 40 40" fill="none" xmlns="http://www.w3.org/2000/svg">
<rect x="4.38" y="4.37988" width="31.25" height="31.25" rx="1.25" fill="#F1F2F4"/>
<path d="M20.0001 16.3553C17.9931 16.3553 16.3552 17.9931 16.3552 20.0002C16.3552 22.0072 17.9931 23.6451 20.0001 23.6451C22.0072 23.6451 23.6451 22.0072 23.6451 20.0002C23.6451 17.9931 22.0072 16.3553 20.0001 16.3553ZM30.9322 20.0002C30.9322 18.4908 30.9458 16.9951 30.8611 15.4885C30.7763 13.7385 30.3771 12.1853 29.0974 10.9056C27.815 9.62323 26.2646 9.22674 24.5146 9.14198C23.0052 9.05721 21.5095 9.07088 20.0029 9.07088C18.4935 9.07088 16.9978 9.05721 15.4911 9.14198C13.7411 9.22674 12.188 9.62596 10.9083 10.9056C9.62591 12.1881 9.22943 13.7385 9.14466 15.4885C9.0599 16.9978 9.07357 18.4935 9.07357 20.0002C9.07357 21.5068 9.0599 23.0053 9.14466 24.5119C9.22943 26.2619 9.62865 27.815 10.9083 29.0947C12.1908 30.3771 13.7411 30.7736 15.4911 30.8584C17.0005 30.9431 18.4962 30.9295 20.0029 30.9295C21.5122 30.9295 23.0079 30.9431 24.5146 30.8584C26.2646 30.7736 27.8177 30.3744 29.0974 29.0947C30.3798 27.8123 30.7763 26.2619 30.8611 24.5119C30.9486 23.0053 30.9322 21.5096 30.9322 20.0002ZM20.0001 25.6084C16.8966 25.6084 14.3919 23.1037 14.3919 20.0002C14.3919 16.8967 16.8966 14.392 20.0001 14.392C23.1036 14.392 25.6083 16.8967 25.6083 20.0002C25.6083 23.1037 23.1036 25.6084 20.0001 25.6084ZM25.838 15.4721C25.1134 15.4721 24.5283 14.8869 24.5283 14.1623C24.5283 13.4377 25.1134 12.8525 25.838 12.8525C26.5626 12.8525 27.1478 13.4377 27.1478 14.1623C27.148 14.3343 27.1143 14.5048 27.0485 14.6638C26.9828 14.8228 26.8863 14.9672 26.7646 15.0889C26.643 15.2106 26.4985 15.307 26.3395 15.3728C26.1805 15.4385 26.0101 15.4723 25.838 15.4721Z" fill="#13171C"/>
</svg>
