<svg width="24" height="22" viewBox="0 0 24 22" fill="none" xmlns="http://www.w3.org/2000/svg">
<path d="M10.715 16.5714C10.715 16.9124 10.8504 17.2394 11.0915 17.4806C11.3327 17.7217 11.6597 17.8571 12.0007 17.8571C12.3417 17.8571 12.6687 17.7217 12.9098 17.4806C13.1509 17.2394 13.2864 16.9124 13.2864 16.5714C13.2864 16.2304 13.1509 15.9034 12.9098 15.6623C12.6687 15.4212 12.3417 15.2857 12.0007 15.2857C11.6597 15.2857 11.3327 15.4212 11.0915 15.6623C10.8504 15.9034 10.715 16.2304 10.715 16.5714ZM11.1435 8.42857V13.3571C11.1435 13.475 11.24 13.5714 11.3578 13.5714H12.6435C12.7614 13.5714 12.8578 13.475 12.8578 13.3571V8.42857C12.8578 8.31072 12.7614 8.21429 12.6435 8.21429H11.3578C11.24 8.21429 11.1435 8.31072 11.1435 8.42857ZM23.8855 20.2143L12.7426 0.928571C12.5766 0.641964 12.29 0.5 12.0007 0.5C11.7114 0.5 11.4221 0.641964 11.2587 0.928571L0.115857 20.2143C-0.213607 20.7875 0.198893 21.5 0.857822 21.5H23.1435C23.8025 21.5 24.215 20.7875 23.8855 20.2143ZM2.89889 19.467L12.0007 3.71161L21.1025 19.467H2.89889Z" fill="#FAAD14"/>
</svg>
