<svg width="32" height="32" viewBox="0 0 32 32" fill="none" xmlns="http://www.w3.org/2000/svg">
<path d="M25.5456 4.74196C22.1813 1.37768 16.7028 1.37768 13.3421 4.74196L4.02062 14.0562C3.95991 14.117 3.92777 14.1991 3.92777 14.2848C3.92777 14.3705 3.95991 14.4527 4.02062 14.5134L5.33848 15.8313C5.39872 15.8912 5.48026 15.9249 5.56527 15.9249C5.65027 15.9249 5.73181 15.8912 5.79205 15.8313L15.1135 6.51696C16.2706 5.35982 17.8099 4.72411 19.4456 4.72411C21.0813 4.72411 22.6206 5.35982 23.7742 6.51696C24.9313 7.67411 25.5671 9.21339 25.5671 10.8455C25.5671 12.4812 24.9313 14.017 23.7742 15.1741L14.2742 24.6705L12.7349 26.2098C11.2956 27.6491 8.95634 27.6491 7.51705 26.2098C6.82062 25.5134 6.43848 24.5884 6.43848 23.6027C6.43848 22.617 6.82062 21.692 7.51705 20.9955L16.9421 11.5741C17.1813 11.3384 17.4956 11.2063 17.8313 11.2063H17.8349C18.1706 11.2063 18.4813 11.3384 18.7171 11.5741C18.9563 11.8134 19.0849 12.1277 19.0849 12.4634C19.0849 12.7955 18.9528 13.1098 18.7171 13.3455L11.0135 21.042C10.9528 21.1027 10.9206 21.1848 10.9206 21.2705C10.9206 21.3563 10.9528 21.4384 11.0135 21.4991L12.3313 22.817C12.3916 22.8769 12.4731 22.9106 12.5581 22.9106C12.6431 22.9106 12.7247 22.8769 12.7849 22.817L20.4849 15.117C21.1956 14.4062 21.5849 13.4634 21.5849 12.4598C21.5849 11.4563 21.1921 10.5098 20.4849 9.80268C19.0171 8.33482 16.6313 8.33839 15.1635 9.80268L14.2492 10.7205L5.74205 19.2241C5.16466 19.7981 4.70698 20.481 4.39554 21.2333C4.0841 21.9855 3.9251 22.7921 3.92777 23.6063C3.92777 25.2598 4.5742 26.8134 5.74205 27.9813C6.95277 29.1884 8.53848 29.792 10.1242 29.792C11.7099 29.792 13.2956 29.1884 14.5028 27.9813L25.5456 16.9455C27.1706 15.317 28.0706 13.1491 28.0706 10.8455C28.0742 8.53839 27.1742 6.37054 25.5456 4.74196Z" fill="#9A9FA5"/>
</svg>
