<svg width="14" height="14" viewBox="0 0 14 14" fill="none" xmlns="http://www.w3.org/2000/svg">
<path d="M4.625 1.87354H4.5C4.56875 1.87354 4.625 1.81729 4.625 1.74854V1.87354H9.375V1.74854C9.375 1.81729 9.43125 1.87354 9.5 1.87354H9.375V2.99854H10.5V1.74854C10.5 1.19697 10.0516 0.748535 9.5 0.748535H4.5C3.94844 0.748535 3.5 1.19697 3.5 1.74854V2.99854H4.625V1.87354ZM12.5 2.99854H1.5C1.22344 2.99854 1 3.22197 1 3.49854V3.99854C1 4.06729 1.05625 4.12354 1.125 4.12354H2.06875L2.45469 12.2954C2.47969 12.8282 2.92031 13.2485 3.45313 13.2485H10.5469C11.0813 13.2485 11.5203 12.8298 11.5453 12.2954L11.9313 4.12354H12.875C12.9438 4.12354 13 4.06729 13 3.99854V3.49854C13 3.22197 12.7766 2.99854 12.5 2.99854ZM10.4266 12.1235H3.57344L3.19531 4.12354H10.8047L10.4266 12.1235Z" fill="#9A9FA5"/>
</svg>
