<svg width="70" height="70" viewBox="0 0 70 70" fill="none" xmlns="http://www.w3.org/2000/svg">
<rect width="70" height="70" rx="35" fill="#86DCA5"/>
<path d="M29.75 31.5L36.0081 36.1936C36.4266 36.5074 37.0162 36.4457 37.3607 36.0521L49 22.75" stroke="white" stroke-width="2" stroke-linecap="round"/>
<path d="M50.75 35C50.75 38.2909 49.7192 41.4991 47.8023 44.174C45.8855 46.849 43.1789 48.8563 40.0627 49.9141C36.9465 50.972 33.5772 51.0271 30.428 50.0718C27.2789 49.1165 24.508 47.1988 22.5047 44.588C20.5013 41.9772 19.3661 38.8044 19.2584 35.5153C19.1508 32.2262 20.0761 28.986 21.9044 26.2498C23.7327 23.5135 26.3721 21.4187 29.4521 20.2595C32.532 19.1003 35.8977 18.9349 39.0764 19.7867" stroke="white" stroke-linecap="round"/>
</svg>
