<svg width="32" height="32" viewBox="0 0 32 32" fill="none" xmlns="http://www.w3.org/2000/svg">
<g clip-path="url(#clip0_1372_23659)">
<path d="M30.8571 3.42212H1.14286C0.510714 3.42212 0 3.93283 0 4.56498V27.4221C0 28.0543 0.510714 28.565 1.14286 28.565H30.8571C31.4893 28.565 32 28.0543 32 27.4221V4.56498C32 3.93283 31.4893 3.42212 30.8571 3.42212ZM29.4286 7.37926V25.9936H2.57143V7.37926L1.58571 6.61141L2.98929 4.80783L4.51786 5.99712H27.4857L29.0143 4.80783L30.4179 6.61141L29.4286 7.37926V7.37926ZM27.4857 5.99355L16 14.9221L4.51429 5.99355L2.98571 4.80426L1.58214 6.60783L2.56786 7.37569L14.7679 16.8614C15.1187 17.134 15.5504 17.2819 15.9946 17.2819C16.4389 17.2819 16.8706 17.134 17.2214 16.8614L29.4286 7.37926L30.4143 6.61141L29.0107 4.80783L27.4857 5.99355Z" fill="#13171C"/>
</g>
<defs>
<clipPath id="clip0_1372_23659">
<rect width="32" height="32" fill="white"/>
</clipPath>
</defs>
</svg>
