<svg width="40" height="40" viewBox="0 0 40 40" fill="none" xmlns="http://www.w3.org/2000/svg">
<g clip-path="url(#clip0_8182_1175)">
<path d="M39.3997 19.6849L22.1497 2.44383L20.9935 1.28758C20.73 1.02587 20.3738 0.878983 20.0024 0.878983C19.6311 0.878983 19.2748 1.02587 19.0113 1.28758L0.605096 19.6849C0.335145 19.9538 0.121799 20.2741 -0.0223501 20.6268C-0.166499 20.9795 -0.23853 21.3575 -0.23419 21.7385C-0.216333 23.3099 1.0917 24.5644 2.66313 24.5644H4.56045V39.1045H35.4444V24.5644H37.3819C38.1453 24.5644 38.864 24.2653 39.4042 23.7251C39.6702 23.46 39.8809 23.1447 40.0242 22.7976C40.1675 22.4504 40.2405 22.0783 40.239 21.7028C40.239 20.9438 39.9399 20.2251 39.3997 19.6849ZM22.5024 35.8903H17.5024V26.7831H22.5024V35.8903ZM32.2301 21.3501V35.8903H25.3596V25.7117C25.3596 24.7251 24.5605 23.926 23.5738 23.926H16.431C15.4444 23.926 14.6453 24.7251 14.6453 25.7117V35.8903H7.77474V21.3501H3.48902L20.0069 4.84561L21.0381 5.87686L36.5203 21.3501H32.2301Z" fill="#13171C"/>
</g>
<defs>
<clipPath id="clip0_8182_1175">
<rect width="40" height="40" fill="white"/>
</clipPath>
</defs>
</svg>
