<svg width="14" height="14" viewBox="0 0 14 14" fill="none" xmlns="http://www.w3.org/2000/svg">
<g clip-path="url(#clip0_8503_27550)">
<path d="M13.875 6.40625H11.9656C11.6953 4.11875 9.88125 2.30469 7.59375 2.03437V0.125C7.59375 0.05625 7.5375 0 7.46875 0H6.53125C6.4625 0 6.40625 0.05625 6.40625 0.125V2.03437C4.11875 2.30469 2.30469 4.11875 2.03437 6.40625H0.125C0.05625 6.40625 0 6.4625 0 6.53125V7.46875C0 7.5375 0.05625 7.59375 0.125 7.59375H2.03437C2.30469 9.88125 4.11875 11.6953 6.40625 11.9656V13.875C6.40625 13.9438 6.4625 14 6.53125 14H7.46875C7.5375 14 7.59375 13.9438 7.59375 13.875V11.9656C9.88125 11.6953 11.6953 9.88125 11.9656 7.59375H13.875C13.9438 7.59375 14 7.5375 14 7.46875V6.53125C14 6.4625 13.9438 6.40625 13.875 6.40625ZM7 10.8125C4.89375 10.8125 3.1875 9.10625 3.1875 7C3.1875 4.89375 4.89375 3.1875 7 3.1875C9.10625 3.1875 10.8125 4.89375 10.8125 7C10.8125 9.10625 9.10625 10.8125 7 10.8125Z" fill="#9A9FA5"/>
<path d="M7.00024 5.12691C6.49868 5.12691 6.02993 5.32066 5.67524 5.67691C5.32055 6.0316 5.12524 6.50035 5.12524 7.00191C5.12524 7.50348 5.32055 7.97223 5.67524 8.32691C6.02993 8.68004 6.50024 8.87691 7.00024 8.87691C7.50024 8.87691 7.97055 8.6816 8.32524 8.32691C8.67836 7.97223 8.87524 7.50191 8.87524 7.00191C8.87524 6.50191 8.67993 6.0316 8.32524 5.67691C8.15204 5.50176 7.94565 5.3629 7.71814 5.26846C7.49063 5.17402 7.24657 5.1259 7.00024 5.12691Z" fill="#9A9FA5"/>
</g>
<defs>
<clipPath id="clip0_8503_27550">
<rect width="14" height="14" fill="white"/>
</clipPath>
</defs>
</svg>
