<svg width="20" height="22" viewBox="0 0 20 22" fill="none" xmlns="http://www.w3.org/2000/svg">
<path d="M16.4289 15.0714C15.6655 15.0714 14.961 15.3393 14.4092 15.7866L8.85921 11.7714C8.95214 11.2613 8.95214 10.7387 8.85921 10.2286L14.4092 6.21339C14.961 6.66072 15.6655 6.92857 16.4289 6.92857C18.2021 6.92857 19.6431 5.4875 19.6431 3.71429C19.6431 1.94107 18.2021 0.5 16.4289 0.5C14.6556 0.5 13.2146 1.94107 13.2146 3.71429C13.2146 4.025 13.2574 4.32232 13.3405 4.60625L8.06903 8.42321C7.28689 7.38661 6.04403 6.71429 4.64314 6.71429C2.27528 6.71429 0.357422 8.63214 0.357422 11C0.357422 13.3679 2.27528 15.2857 4.64314 15.2857C6.04403 15.2857 7.28689 14.6134 8.06903 13.5768L13.3405 17.3938C13.2574 17.6777 13.2146 17.9777 13.2146 18.2857C13.2146 20.0589 14.6556 21.5 16.4289 21.5C18.2021 21.5 19.6431 20.0589 19.6431 18.2857C19.6431 16.5125 18.2021 15.0714 16.4289 15.0714ZM16.4289 2.32143C17.1976 2.32143 17.8217 2.94554 17.8217 3.71429C17.8217 4.48304 17.1976 5.10714 16.4289 5.10714C15.6601 5.10714 15.036 4.48304 15.036 3.71429C15.036 2.94554 15.6601 2.32143 16.4289 2.32143ZM4.64314 13.3571C3.34403 13.3571 2.28599 12.2991 2.28599 11C2.28599 9.70089 3.34403 8.64286 4.64314 8.64286C5.94224 8.64286 7.00028 9.70089 7.00028 11C7.00028 12.2991 5.94224 13.3571 4.64314 13.3571ZM16.4289 19.6786C15.6601 19.6786 15.036 19.0545 15.036 18.2857C15.036 17.517 15.6601 16.8929 16.4289 16.8929C17.1976 16.8929 17.8217 17.517 17.8217 18.2857C17.8217 19.0545 17.1976 19.6786 16.4289 19.6786Z" fill="#69A1F4"/>
</svg>
