<svg width="12" height="12" viewBox="0 0 12 12" fill="none" xmlns="http://www.w3.org/2000/svg">
<path d="M8.83938 2.06621V1.03094C8.83938 0.941211 8.73625 0.891658 8.66661 0.946568L2.62911 5.66219C2.57781 5.70209 2.5363 5.75317 2.50775 5.81154C2.4792 5.86992 2.46436 5.93404 2.46436 5.99902C2.46436 6.06401 2.4792 6.12813 2.50775 6.18651C2.5363 6.24488 2.57781 6.29596 2.62911 6.33585L8.66661 11.0515C8.73759 11.1064 8.83938 11.0568 8.83938 10.9671V9.93184C8.83938 9.86621 8.80857 9.80327 8.75768 9.76309L3.93625 5.99969L8.75768 2.23496C8.80857 2.19478 8.83938 2.13184 8.83938 2.06621Z" fill="#505357"/>
</svg>
