<svg width="40" height="40" viewBox="0 0 40 40" fill="none" xmlns="http://www.w3.org/2000/svg">
<g clip-path="url(#clip0_7197_904)">
<path d="M34.2871 2.14286H29.4657V0.357143C29.4657 0.160714 29.305 0 29.1085 0H26.6085C26.4121 0 26.2514 0.160714 26.2514 0.357143V2.14286H19.4657V0.357143C19.4657 0.160714 19.305 0 19.1085 0H16.6085C16.4121 0 16.2514 0.160714 16.2514 0.357143V2.14286H11.43C10.6398 2.14286 10.0014 2.78125 10.0014 3.57143V8.92857H5.71568C4.9255 8.92857 4.28711 9.56696 4.28711 10.3571V38.5714C4.28711 39.3616 4.9255 40 5.71568 40H28.5728C29.363 40 30.0014 39.3616 30.0014 38.5714V34.2857H34.2871C35.0773 34.2857 35.7157 33.6473 35.7157 32.8571V3.57143C35.7157 2.78125 35.0773 2.14286 34.2871 2.14286ZM26.7871 36.7857H7.5014V12.1429H17.2335V19.9107C17.2335 20.8973 18.0326 21.6964 19.0193 21.6964H26.7871V36.7857ZM26.7871 18.8393H20.0907V12.1429H20.0996L26.7871 18.8304V18.8393ZM32.5014 31.0714H30.0014V17.5L21.43 8.92857H13.2157V5.35714H16.2514V6.78571C16.2514 6.98214 16.4121 7.14286 16.6085 7.14286H19.1085C19.305 7.14286 19.4657 6.98214 19.4657 6.78571V5.35714H26.2514V6.78571C26.2514 6.98214 26.4121 7.14286 26.6085 7.14286H29.1085C29.305 7.14286 29.4657 6.98214 29.4657 6.78571V5.35714H32.5014V31.0714Z" fill="#13171C"/>
</g>
<defs>
<clipPath id="clip0_7197_904">
<rect width="40" height="40" fill="white"/>
</clipPath>
</defs>
</svg>
