<svg width="18" height="18" viewBox="0 0 18 18" fill="none" xmlns="http://www.w3.org/2000/svg">
<path d="M16.99 15.8836L11.7728 10.6664C12.5824 9.61974 13.0204 8.34005 13.0204 6.99407C13.0204 5.38291 12.3916 3.8722 11.2545 2.73313C10.1175 1.59407 8.60273 0.967285 6.99358 0.967285C5.38443 0.967285 3.8697 1.59608 2.73264 2.73313C1.59358 3.87019 0.966797 5.38291 0.966797 6.99407C0.966797 8.60322 1.59559 10.118 2.73264 11.255C3.8697 12.3941 5.38242 13.0209 6.99358 13.0209C8.33956 13.0209 9.61724 12.5829 10.6639 11.7753L15.8811 16.9905C15.8964 17.0058 15.9145 17.0179 15.9345 17.0262C15.9545 17.0345 15.976 17.0388 15.9976 17.0388C16.0192 17.0388 16.0407 17.0345 16.0607 17.0262C16.0807 17.0179 16.0988 17.0058 16.1141 16.9905L16.99 16.1166C17.0053 16.1013 17.0175 16.0832 17.0257 16.0632C17.034 16.0432 17.0383 16.0217 17.0383 16.0001C17.0383 15.9785 17.034 15.957 17.0257 15.937C17.0175 15.917 17.0053 15.8989 16.99 15.8836ZM10.1757 10.1762C9.32394 11.026 8.19492 11.4941 6.99358 11.4941C5.79224 11.4941 4.66323 11.026 3.81144 10.1762C2.96166 9.32443 2.49358 8.19541 2.49358 6.99407C2.49358 5.79273 2.96166 4.6617 3.81144 3.81193C4.66323 2.96215 5.79224 2.49407 6.99358 2.49407C8.19492 2.49407 9.32595 2.96014 10.1757 3.81193C11.0255 4.66371 11.4936 5.79273 11.4936 6.99407C11.4936 8.19541 11.0255 9.32644 10.1757 10.1762Z" fill="#9A9FA5"/>
</svg>
