<svg width="32" height="32" viewBox="0 0 32 32" fill="none" xmlns="http://www.w3.org/2000/svg">
<path d="M30.9798 15.5381L1.10475 0.559547C0.983319 0.498832 0.844033 0.484547 0.711891 0.51669C0.565231 0.552946 0.438914 0.645839 0.360597 0.775028C0.28228 0.904218 0.258345 1.05918 0.294033 1.20598L3.3726 13.7845C3.41903 13.9738 3.55832 14.1274 3.74403 14.1881L9.01903 15.9988L3.7476 17.8095C3.56189 17.8738 3.42261 18.0238 3.37975 18.2131L0.294033 30.8095C0.26189 30.9417 0.276176 31.081 0.336891 31.1988C0.476176 31.481 0.819033 31.5953 1.10475 31.456L30.9798 16.5631C31.0905 16.5095 31.1797 16.4167 31.2369 16.3095C31.3762 16.0238 31.2619 15.681 30.9798 15.5381ZM3.81546 27.231L5.61189 19.8881L16.1547 16.2703C16.2369 16.2417 16.3047 16.1774 16.3333 16.0917C16.3833 15.9417 16.3047 15.781 16.1547 15.7274L5.61189 12.1131L3.82261 4.79883L26.2512 16.0453L3.81546 27.231Z" fill="#9A9FA5"/>
</svg>
