<svg width="16" height="16" viewBox="0 0 16 16" fill="none" xmlns="http://www.w3.org/2000/svg">
<path d="M15.0003 1.67969H6.14314C6.06456 1.67969 6.00028 1.74397 6.00028 1.82254V2.82254C6.00028 2.90112 6.06456 2.9654 6.14314 2.9654H15.0003C15.0788 2.9654 15.1431 2.90112 15.1431 2.82254V1.82254C15.1431 1.74397 15.0788 1.67969 15.0003 1.67969ZM15.0003 9.25112H6.14314C6.06456 9.25112 6.00028 9.3154 6.00028 9.39398V10.394C6.00028 10.4725 6.06456 10.5368 6.14314 10.5368H15.0003C15.0788 10.5368 15.1431 10.4725 15.1431 10.394V9.39398C15.1431 9.3154 15.0788 9.25112 15.0003 9.25112ZM15.0003 13.0368H1.00028C0.921708 13.0368 0.857422 13.1011 0.857422 13.1797V14.1797C0.857422 14.2583 0.921708 14.3225 1.00028 14.3225H15.0003C15.0788 14.3225 15.1431 14.2583 15.1431 14.1797V13.1797C15.1431 13.1011 15.0788 13.0368 15.0003 13.0368ZM15.0003 5.4654H1.00028C0.921708 5.4654 0.857422 5.52969 0.857422 5.60826V6.60826C0.857422 6.68683 0.921708 6.75112 1.00028 6.75112H15.0003C15.0788 6.75112 15.1431 6.68683 15.1431 6.60826V5.60826C15.1431 5.52969 15.0788 5.4654 15.0003 5.4654Z" fill="#9A9FA5"/>
</svg>
